<svg width="138" height="56" viewBox="0 0 138 56" fill="none" xmlns="http://www.w3.org/2000/svg">
<circle cx="13.5" cy="29.5" r="3.5" fill="white" fill-opacity="0.9"/>
<path d="M1.536 29.448C1.536 31.592 2.048 33.528 3.072 35.256C4.128 36.952 5.552 38.312 7.344 39.336C9.168 40.328 11.184 40.824 13.392 40.824C14.48 40.824 15.472 40.68 16.368 40.392C17.296 40.072 18.112 39.624 18.816 39.048C19.552 38.472 20.128 37.816 20.544 37.08C20.512 39.128 20.192 40.888 19.584 42.36C19.008 43.8 18.192 44.904 17.136 45.672C16.112 46.44 14.88 46.824 13.44 46.824C12.032 46.824 10.704 46.472 9.456 45.768C8.24 45.096 7.248 44.168 6.48 42.984L2.784 47.016C4.032 48.744 5.568 50.072 7.392 51C9.216 51.928 11.2 52.392 13.344 52.392C16.032 52.392 18.368 51.656 20.352 50.184C22.336 48.712 23.856 46.552 24.912 43.704C26 40.856 26.544 37.368 26.544 33.24C26.544 29.944 26.032 27.144 25.008 24.84C23.984 22.504 22.528 20.712 20.64 19.464C18.784 18.216 16.56 17.592 13.968 17.592C11.632 17.592 9.52 18.12 7.632 19.176C5.744 20.232 4.256 21.656 3.168 23.448C2.08 25.24 1.536 27.24 1.536 29.448ZM13.968 23.016C15.088 23.016 16.128 23.32 17.088 23.928C18.048 24.504 18.816 25.288 19.392 26.28C19.968 27.24 20.256 28.296 20.256 29.448C20.256 30.6 19.968 31.656 19.392 32.616C18.816 33.544 18.048 34.296 17.088 34.872C16.16 35.416 15.12 35.688 13.968 35.688C12.816 35.688 11.76 35.416 10.8 34.872C9.84 34.296 9.072 33.544 8.496 32.616C7.952 31.656 7.68 30.6 7.68 29.448C7.68 28.264 7.968 27.192 8.544 26.232C9.12 25.272 9.888 24.504 10.848 23.928C11.808 23.32 12.848 23.016 13.968 23.016Z" fill="#BFFB6C"/>
<rect x="29" y="12" width="109" height="37" fill="#BFFB6C"/>
<path d="M37.648 47.056C36.76 47.056 35.908 46.912 35.092 46.624C34.276 46.36 33.532 45.94 32.86 45.364L34.948 42.088C35.212 42.376 35.536 42.58 35.92 42.7C36.304 42.82 36.688 42.88 37.072 42.88C37.504 42.88 37.888 42.772 38.224 42.556C38.584 42.364 38.86 42.088 39.052 41.728C39.268 41.368 39.376 40.96 39.376 40.504V21.136H44.2V40.144C44.2 41.488 43.9 42.688 43.3 43.744C42.724 44.8 41.944 45.616 40.96 46.192C40 46.768 38.896 47.056 37.648 47.056ZM39.376 18.508V13.72H44.2V18.508H39.376ZM47.2867 34.42C47.2867 33.196 47.6227 32.128 48.2947 31.216C48.9907 30.28 49.9507 29.56 51.1747 29.056C52.3987 28.552 53.8027 28.3 55.3867 28.3C56.1787 28.3 56.9827 28.36 57.7987 28.48C58.6147 28.6 59.3227 28.792 59.9227 29.056V28.048C59.9227 26.848 59.5627 25.924 58.8427 25.276C58.1467 24.628 57.1027 24.304 55.7107 24.304C54.6787 24.304 53.6947 24.484 52.7587 24.844C51.8227 25.204 50.8387 25.732 49.8067 26.428L48.2587 23.26C49.5067 22.444 50.7787 21.832 52.0747 21.424C53.3947 21.016 54.7747 20.812 56.2147 20.812C58.9027 20.812 60.9907 21.484 62.4787 22.828C63.9907 24.172 64.7467 26.092 64.7467 28.588V34.6C64.7467 35.104 64.8307 35.464 64.9987 35.68C65.1907 35.896 65.4907 36.028 65.8987 36.076V40C65.4667 40.072 65.0707 40.132 64.7107 40.18C64.3747 40.228 64.0867 40.252 63.8467 40.252C62.8867 40.252 62.1547 40.036 61.6507 39.604C61.1707 39.172 60.8707 38.644 60.7507 38.02L60.6427 37.048C59.8267 38.104 58.8067 38.92 57.5827 39.496C56.3587 40.072 55.1107 40.36 53.8387 40.36C52.5907 40.36 51.4627 40.108 50.4547 39.604C49.4707 39.076 48.6907 38.368 48.1147 37.48C47.5627 36.568 47.2867 35.548 47.2867 34.42ZM59.0227 35.392C59.2867 35.104 59.5027 34.816 59.6707 34.528C59.8387 34.24 59.9227 33.976 59.9227 33.736V31.828C59.3467 31.588 58.7227 31.408 58.0507 31.288C57.3787 31.144 56.7427 31.072 56.1427 31.072C54.8947 31.072 53.8627 31.348 53.0467 31.9C52.2547 32.428 51.8587 33.136 51.8587 34.024C51.8587 34.504 51.9907 34.96 52.2547 35.392C52.5187 35.824 52.9027 36.172 53.4067 36.436C53.9107 36.7 54.5107 36.832 55.2067 36.832C55.9267 36.832 56.6347 36.7 57.3307 36.436C58.0267 36.148 58.5907 35.8 59.0227 35.392ZM76.2026 40.36C74.5946 40.36 73.0586 40.096 71.5946 39.568C70.1306 39.04 68.8706 38.26 67.8146 37.228L69.5426 34.096C70.6706 35.008 71.7746 35.68 72.8546 36.112C73.9586 36.544 75.0146 36.76 76.0226 36.76C76.9586 36.76 77.7026 36.592 78.2546 36.256C78.8306 35.92 79.1186 35.416 79.1186 34.744C79.1186 34.288 78.9626 33.94 78.6506 33.7C78.3386 33.436 77.8826 33.208 77.2826 33.016C76.7066 32.824 75.9986 32.608 75.1586 32.368C73.7666 31.912 72.6026 31.468 71.6666 31.036C70.7306 30.604 70.0226 30.064 69.5426 29.416C69.0866 28.744 68.8586 27.892 68.8586 26.86C68.8586 25.612 69.1706 24.544 69.7946 23.656C70.4426 22.744 71.3306 22.036 72.4586 21.532C73.6106 21.028 74.9546 20.776 76.4906 20.776C77.8346 20.776 79.1066 20.992 80.3066 21.424C81.5066 21.832 82.5986 22.504 83.5826 23.44L81.6386 26.5C80.6786 25.756 79.7666 25.216 78.9026 24.88C78.0386 24.52 77.1626 24.34 76.2746 24.34C75.7706 24.34 75.2906 24.4 74.8346 24.52C74.4026 24.64 74.0426 24.844 73.7546 25.132C73.4906 25.396 73.3586 25.78 73.3586 26.284C73.3586 26.74 73.4786 27.1 73.7186 27.364C73.9826 27.604 74.3666 27.82 74.8706 28.012C75.3986 28.204 76.0346 28.42 76.7786 28.66C78.2906 29.092 79.5626 29.536 80.5946 29.992C81.6506 30.448 82.4426 31.012 82.9706 31.684C83.4986 32.332 83.7626 33.232 83.7626 34.384C83.7626 36.256 83.0786 37.72 81.7106 38.776C80.3426 39.832 78.5066 40.36 76.2026 40.36ZM98.2422 39.028C97.8342 39.196 97.3422 39.388 96.7662 39.604C96.1902 39.82 95.5662 39.988 94.8942 40.108C94.2462 40.252 93.5862 40.324 92.9142 40.324C92.0262 40.324 91.2102 40.168 90.4662 39.856C89.7222 39.544 89.1222 39.052 88.6662 38.38C88.2342 37.684 88.0182 36.784 88.0182 35.68V24.844H85.5342V21.136H88.0182V15.016H92.8422V21.136H96.8022V24.844H92.8422V34.06C92.8662 34.708 93.0462 35.176 93.3822 35.464C93.7182 35.752 94.1382 35.896 94.6422 35.896C95.1462 35.896 95.6382 35.812 96.1182 35.644C96.5982 35.476 96.9822 35.332 97.2702 35.212L98.2422 39.028ZM99.4586 34.42C99.4586 33.196 99.7946 32.128 100.467 31.216C101.163 30.28 102.123 29.56 103.347 29.056C104.571 28.552 105.975 28.3 107.559 28.3C108.351 28.3 109.155 28.36 109.971 28.48C110.787 28.6 111.495 28.792 112.095 29.056V28.048C112.095 26.848 111.735 25.924 111.015 25.276C110.319 24.628 109.275 24.304 107.883 24.304C106.851 24.304 105.867 24.484 104.931 24.844C103.995 25.204 103.011 25.732 101.979 26.428L100.431 23.26C101.679 22.444 102.951 21.832 104.247 21.424C105.567 21.016 106.947 20.812 108.387 20.812C111.075 20.812 113.163 21.484 114.651 22.828C116.163 24.172 116.919 26.092 116.919 28.588V34.6C116.919 35.104 117.003 35.464 117.171 35.68C117.363 35.896 117.663 36.028 118.071 36.076V40C117.639 40.072 117.243 40.132 116.883 40.18C116.547 40.228 116.259 40.252 116.019 40.252C115.059 40.252 114.327 40.036 113.823 39.604C113.343 39.172 113.043 38.644 112.923 38.02L112.815 37.048C111.999 38.104 110.979 38.92 109.755 39.496C108.531 40.072 107.283 40.36 106.011 40.36C104.763 40.36 103.635 40.108 102.627 39.604C101.643 39.076 100.863 38.368 100.287 37.48C99.7346 36.568 99.4586 35.548 99.4586 34.42ZM111.195 35.392C111.459 35.104 111.675 34.816 111.843 34.528C112.011 34.24 112.095 33.976 112.095 33.736V31.828C111.519 31.588 110.895 31.408 110.223 31.288C109.551 31.144 108.915 31.072 108.315 31.072C107.067 31.072 106.035 31.348 105.219 31.9C104.427 32.428 104.031 33.136 104.031 34.024C104.031 34.504 104.163 34.96 104.427 35.392C104.691 35.824 105.075 36.172 105.579 36.436C106.083 36.7 106.683 36.832 107.379 36.832C108.099 36.832 108.807 36.7 109.503 36.436C110.199 36.148 110.763 35.8 111.195 35.392ZM132.658 25.312C131.194 25.312 129.886 25.6 128.734 26.176C127.582 26.728 126.754 27.532 126.25 28.588V40H121.426V21.136H125.854V25.168C126.526 23.872 127.378 22.852 128.41 22.108C129.442 21.364 130.534 20.956 131.686 20.884C131.95 20.884 132.154 20.884 132.298 20.884C132.442 20.884 132.562 20.896 132.658 20.92V25.312Z" fill="#30143D"/>
</svg>
